<?xml version="1.0" encoding="UTF-8"?>
<svg id="Layer_1" data-name="Layer 1" xmlns="http://www.w3.org/2000/svg" viewBox="0 0 864 144">
  <defs>
    <style>
      .cls-1 {
        fill: #1e66b1;
        stroke-width: 0px;
      }

      .cls-2 {
        stroke-width: 4px;
      }

      .cls-2, .cls-3 {
        fill: none;
        stroke: #1e66b1;
        stroke-miterlimit: 10;
      }

      .cls-3 {
        stroke-width: 6px;
      }
    </style>
  </defs>
  <g>
    <path class="cls-1" d="M183.9941,103.1553l-10.1514-50.6533h8.2861l8.3906,45.1631h1.4502l11.084-45.1631h13.5693l11.083,45.1631h1.4502l8.3906-45.1631h8.2871l-10.1514,50.6533h-13.9844l-11.1865-45.1631h-1.3467l-11.1875,45.1631h-13.9834Z"/>
    <path class="cls-1" d="M283.124,104.6055c-5.1113,0-9.5996-1.0879-13.4668-3.2627-3.8682-2.1758-6.8721-5.2314-9.0117-9.168-2.1406-3.9355-3.2109-8.4932-3.2109-13.6729v-1.2432c0-5.2471,1.0703-9.8408,3.2109-13.7769,2.1396-3.936,5.1104-6.9917,8.9082-9.167s8.1475-3.2632,13.0518-3.2632c4.7646,0,8.9766,1.02,12.6377,3.0557,3.6592,2.0381,6.5254,4.9561,8.5977,8.7529,2.0713,3.7988,3.1074,8.2529,3.1074,13.3623v3.7295h-41.3301c.207,5.4561,1.9678,9.7207,5.2822,12.793,3.3154,3.0732,7.458,4.6094,12.4307,4.6094,4.3506,0,7.6992-1,10.0479-3.0039,2.3467-2.002,4.1426-4.3848,5.3857-7.1475l7.0439,3.418c-1.0361,2.1416-2.4697,4.2832-4.2988,6.4229-1.8301,2.1406-4.2129,3.9355-7.1475,5.3857-2.9355,1.4502-6.6807,2.1758-11.2383,2.1758ZM265.7217,73.2188h32.9395c-.2764-4.6953-1.8818-8.3545-4.8164-10.98-2.9365-2.6235-6.6816-3.936-11.2393-3.936-4.627,0-8.4258,1.3125-11.3936,3.936-2.9707,2.6255-4.8008,6.2847-5.4902,10.98Z"/>
    <path class="cls-1" d="M349.3135,104.6055c-5.249,0-9.3408-1.002-12.2744-3.0039-2.9365-2.002-5.0596-4.2812-6.3711-6.8369h-1.4502v8.3906h-7.9756V30.646h8.1826v29.832h1.4502c.8291-1.5879,2.0029-3.0898,3.5225-4.5059,1.5176-1.4146,3.5039-2.5898,5.9561-3.522,2.4502-.9321,5.4385-1.3984,8.96-1.3984,4.418,0,8.4424,1.0537,12.0674,3.1597,3.626,2.1069,6.5078,5.1108,8.6494,9.0117,2.1396,3.9023,3.2109,8.5454,3.2109,13.9321v1.3467c0,5.3867-1.0879,10.0479-3.2627,13.9844-2.1758,3.9355-5.0762,6.9395-8.7012,9.0117-3.625,2.0713-7.6133,3.1074-11.9639,3.1074ZM347.1377,97.3545c5.248,0,9.5127-1.6738,12.793-5.0244,3.2793-3.3486,4.9199-8.0273,4.9199-14.0352v-.9326c0-6.0078-1.6406-10.6855-4.9199-14.0356-3.2803-3.3486-7.5449-5.0239-12.793-5.0239-5.1787,0-9.4434,1.6753-12.792,5.0239-3.3506,3.3501-5.0244,8.0278-5.0244,14.0356v.9326c0,6.0078,1.6738,10.6865,5.0244,14.0352,3.3486,3.3506,7.6133,5.0244,12.792,5.0244Z"/>
    <path class="cls-1" d="M411.1533,104.6055c-5.1113,0-9.5996-1.0879-13.4668-3.2627-3.8682-2.1758-6.8721-5.2314-9.0117-9.168-2.1406-3.9355-3.2109-8.4932-3.2109-13.6729v-1.2432c0-5.2471,1.0703-9.8408,3.2109-13.7769,2.1396-3.936,5.1104-6.9917,8.9082-9.167s8.1475-3.2632,13.0518-3.2632c4.7646,0,8.9766,1.02,12.6377,3.0557,3.6592,2.0381,6.5254,4.9561,8.5977,8.7529,2.0713,3.7988,3.1074,8.2529,3.1074,13.3623v3.7295h-41.3301c.207,5.4561,1.9678,9.7207,5.2822,12.793,3.3154,3.0732,7.458,4.6094,12.4307,4.6094,4.3506,0,7.6992-1,10.0479-3.0039,2.3467-2.002,4.1426-4.3848,5.3857-7.1475l7.0439,3.418c-1.0361,2.1416-2.4697,4.2832-4.2988,6.4229-1.8301,2.1406-4.2129,3.9355-7.1475,5.3857-2.9355,1.4502-6.6807,2.1758-11.2383,2.1758ZM393.751,73.2188h32.9395c-.2764-4.6953-1.8818-8.3545-4.8164-10.98-2.9365-2.6235-6.6816-3.936-11.2393-3.936-4.627,0-8.4258,1.3125-11.3936,3.936-2.9707,2.6255-4.8008,6.2847-5.4902,10.98Z"/>
    <path class="cls-1" d="M472.5781,104.6055c-4.9043,0-9.3066-1.0537-13.207-3.1592-3.9023-2.1064-6.9756-5.1279-9.2197-9.0645-2.2441-3.9355-3.3662-8.5967-3.3662-13.9834v-1.1396c0-5.4546,1.1221-10.1333,3.3662-14.0356,2.2441-3.9009,5.3174-6.9048,9.2197-9.0117,3.9004-2.106,8.3027-3.1597,13.207-3.1597,4.833,0,8.96.8984,12.3779,2.6934,3.418,1.7964,6.1113,4.1787,8.0801,7.1475,1.9678,2.9697,3.2266,6.147,3.7803,9.5298l-7.9756,1.6572c-.3467-2.4863-1.1572-4.7651-2.4346-6.8364-1.2783-2.0718-3.0557-3.7295-5.335-4.9722-2.2783-1.2432-5.0752-1.8647-8.3896-1.8647-3.3848,0-6.4062.7607-9.0635,2.2788-2.6592,1.52-4.7656,3.6953-6.3193,6.5259-1.5537,2.8325-2.3301,6.2158-2.3301,10.1514v.9326c0,3.9365.7764,7.3203,2.3301,10.1514,1.5537,2.832,3.6602,5.0078,6.3193,6.5254,2.6572,1.5195,5.6787,2.2793,9.0635,2.2793,5.04,0,8.8906-1.3115,11.5498-3.9365,2.6572-2.623,4.2979-5.8682,4.9199-9.7373l8.0791,1.7617c-.7607,3.3145-2.1406,6.457-4.1426,9.4258-2.0039,2.9697-4.7139,5.3525-8.1318,7.1475s-7.5449,2.6934-12.3779,2.6934Z"/>
    <path class="cls-1" d="M511.2139,103.1553V30.646h8.1826v42.6763h1.4502l23.2031-20.8203h11.3945l-28.0713,24.6533,28.8994,26h-11.29l-24.1357-22.0635h-1.4502v22.0635h-8.1826Z"/>
    <path class="cls-1" d="M590.1445,104.6055c-5.1113,0-9.5996-1.0879-13.4668-3.2627-3.8682-2.1758-6.8721-5.2314-9.0117-9.168-2.1406-3.9355-3.2109-8.4932-3.2109-13.6729v-1.2432c0-5.2471,1.0703-9.8408,3.2109-13.7769,2.1396-3.936,5.1104-6.9917,8.9082-9.167s8.1475-3.2632,13.0518-3.2632c4.7646,0,8.9766,1.02,12.6377,3.0557,3.6592,2.0381,6.5254,4.9561,8.5977,8.7529,2.0713,3.7988,3.1074,8.2529,3.1074,13.3623v3.7295h-41.3301c.207,5.4561,1.9678,9.7207,5.2822,12.793,3.3154,3.0732,7.458,4.6094,12.4307,4.6094,4.3506,0,7.6992-1,10.0479-3.0039,2.3467-2.002,4.1426-4.3848,5.3857-7.1475l7.0439,3.418c-1.0361,2.1416-2.4697,4.2832-4.2988,6.4229-1.8301,2.1406-4.2129,3.9355-7.1475,5.3857-2.9355,1.4502-6.6807,2.1758-11.2383,2.1758ZM572.7422,73.2188h32.9395c-.2764-4.6953-1.8818-8.3545-4.8164-10.98-2.9365-2.6235-6.6816-3.936-11.2393-3.936-4.627,0-8.4258,1.3125-11.3936,3.936-2.9707,2.6255-4.8008,6.2847-5.4902,10.98Z"/>
    <path class="cls-1" d="M632.7178,104.6055c-2.0039,0-3.6777-.6572-5.0244-1.9688-1.3457-1.3105-2.0195-3.0039-2.0195-5.0752s.6738-3.7627,2.0195-5.0752c1.3467-1.3115,3.0205-1.9688,5.0244-1.9688,2.0713,0,3.7627.6572,5.0752,1.9688,1.3115,1.3125,1.9688,3.0039,1.9688,5.0752s-.6572,3.7646-1.9688,5.0752c-1.3125,1.3115-3.0039,1.9688-5.0752,1.9688Z"/>
    <path class="cls-1" d="M675.9102,104.6055c-4.3506,0-8.3555-1.0361-12.0156-3.1074-3.6611-2.0723-6.5615-5.0762-8.7012-9.0117-2.1406-3.9365-3.2109-8.5977-3.2109-13.9844v-1.3467c0-5.3867,1.0703-10.0298,3.2109-13.9321,2.1396-3.9009,5.0244-6.9048,8.6494-9.0117,3.626-2.106,7.6475-3.1597,12.0674-3.1597,3.5225,0,6.5088.4663,8.96,1.3984s4.4365,2.1074,5.957,3.522c1.5176,1.416,2.6924,2.918,3.5215,4.5059h1.4502v-29.832h8.1826v72.5093h-7.9756v-8.3906h-1.4502c-1.3818,2.5557-3.5215,4.835-6.4219,6.8369s-6.9756,3.0039-12.2236,3.0039ZM678.0859,97.3545c5.2471,0,9.5117-1.6738,12.793-5.0244,3.2783-3.3486,4.9199-8.0273,4.9199-14.0352v-.9326c0-6.0078-1.6416-10.6855-4.9199-14.0356-3.2812-3.3486-7.5459-5.0239-12.793-5.0239-5.1797,0-9.4443,1.6753-12.793,5.0239-3.3506,3.3501-5.0234,8.0278-5.0234,14.0356v.9326c0,6.0078,1.6729,10.6865,5.0234,14.0352,3.3486,3.3506,7.6133,5.0244,12.793,5.0244Z"/>
    <path class="cls-1" d="M744.3799,104.6055c-5.1113,0-9.5996-1.0879-13.4668-3.2627-3.8682-2.1758-6.8721-5.2314-9.0117-9.168-2.1406-3.9355-3.2109-8.4932-3.2109-13.6729v-1.2432c0-5.2471,1.0703-9.8408,3.2109-13.7769,2.1396-3.936,5.1104-6.9917,8.9082-9.167s8.1475-3.2632,13.0518-3.2632c4.7646,0,8.9766,1.02,12.6377,3.0557,3.6592,2.0381,6.5254,4.9561,8.5977,8.7529,2.0713,3.7988,3.1074,8.2529,3.1074,13.3623v3.7295h-41.3301c.207,5.4561,1.9678,9.7207,5.2822,12.793,3.3154,3.0732,7.458,4.6094,12.4307,4.6094,4.3506,0,7.6992-1,10.0479-3.0039,2.3467-2.002,4.1426-4.3848,5.3857-7.1475l7.0439,3.418c-1.0361,2.1416-2.4697,4.2832-4.2988,6.4229-1.8301,2.1406-4.2129,3.9355-7.1475,5.3857-2.9355,1.4502-6.6807,2.1758-11.2383,2.1758ZM726.9775,73.2188h32.9395c-.2764-4.6953-1.8818-8.3545-4.8164-10.98-2.9365-2.6235-6.6816-3.936-11.2393-3.936-4.627,0-8.4258,1.3125-11.3936,3.936-2.9707,2.6255-4.8008,6.2847-5.4902,10.98Z"/>
    <path class="cls-1" d="M795.3428,103.1553l-18.1279-50.6533h8.7012l15.2266,44.542h1.4502l15.2275-44.542h8.7012l-18.1279,50.6533h-13.0508Z"/>
  </g>
  <g>
    <line class="cls-2" x1="94.1158" y1="39.4741" x2="94.1158" y2="115.0356"/>
    <line class="cls-2" x1="94.1158" y1="44.8193" x2="85.7197" y2="49.6668"/>
    <polygon class="cls-2" points="82.7805 47.4313 75.9542 47.4313 72.541 53.3431 75.9542 59.2548 82.7805 59.2548 86.1936 53.3431 82.7805 47.4313"/>
    <polygon class="cls-2" points="97.529 25.921 90.7027 25.921 87.2895 31.8327 90.7027 37.7445 97.529 37.7445 100.9422 31.8327 97.529 25.921"/>
    <line class="cls-2" x1="92.9573" y1="65.9012" x2="79.0357" y2="73.9388"/>
    <polygon class="cls-2" points="77.445 71.1922 70.6187 71.1922 67.2056 77.1039 70.6187 83.0157 77.445 83.0157 80.8582 77.1039 77.445 71.1922"/>
    <line class="cls-2" x1="92.9573" y1="86.9569" x2="72.7498" y2="98.6237"/>
    <polygon class="cls-2" points="70.6187 95.4385 63.7924 95.4385 60.3792 101.3502 63.7924 107.262 70.6187 107.262 74.0319 101.3502 70.6187 95.4385"/>
    <line class="cls-2" x1="94.1158" y1="45.0317" x2="102.512" y2="49.8792"/>
    <polygon class="cls-2" points="105.4512 47.6438 112.2775 47.6438 115.6907 53.5555 112.2775 59.4673 105.4512 59.4673 102.038 53.5555 105.4512 47.6438"/>
    <line class="cls-2" x1="95.2744" y1="66.1136" x2="109.196" y2="74.1513"/>
    <polygon class="cls-2" points="110.7866 71.4046 117.613 71.4046 121.0261 77.3164 117.613 83.2281 110.7866 83.2281 107.3735 77.3164 110.7866 71.4046"/>
    <line class="cls-2" x1="95.2744" y1="87.1693" x2="115.4819" y2="98.8361"/>
    <polygon class="cls-2" points="117.613 95.6509 124.4393 95.6509 127.8524 101.5627 124.4393 107.4744 117.613 107.4744 114.1998 101.5627 117.613 95.6509"/>
    <polygon class="cls-3" points="150.8594 38.9768 93.6615 5.9535 36.4635 38.9768 36.4635 105.0232 93.6615 138.0465 150.8594 105.0232 150.8594 38.9768"/>
  </g>
</svg>